<svg xmlns="http://www.w3.org/2000/svg" viewBox="0 0 64 64">
  <path d="M24 20a8 8 0 1 1-8-8 8 8 0 0 1 8 8Zm-8 4c2.21 0 4-1.79 4-4s-1.79-4-4-4-4 1.79-4 4 1.79 4 4 4Zm32-12a8 8 0 1 0 8 8 8 8 0 0 0-8-8Zm0 12c-2.21 0-4-1.79-4-4s1.79-4 4-4 4 1.79 4 4-1.79 4-4 4ZM10 40c0-5.52 4.48-10 10-10h2l10-10 4 4-8 8 8 8-4 4-10-10h-2c-3.31 0-6 2.69-6 6s2.69 6 6 6h10v6H20c-5.52 0-10-4.48-10-10Zm44 0c0 5.52-4.48 10-10 10H34v-6h10c3.31 0 6-2.69 6-6s-2.69-6-6-6h-2l-6-6 4-4 8 8h-4c5.52 0 10 4.48 10 10Z" fill="#111"/>
</svg>
